# xmcd CD database file
#
# Track frame offsets:
#	150
#	12010
#	21177
#	33132
#	44000
#	56000
#	67725
#	80857
#	94407
#	107405
#	121162
#	130920
#	143475
#	159140
#	170722
#	183160
#	194002
#	207605
#	220472
#	230447
#
# Disc length: 3228 seconds
#
# Revision: 2
# Processed by: cddbd v1.5.1PL2 Copyright (c) Steve Scherf et al.
# Submitted via: CDex 1.70beta2
#
DISCID=170c9a14
DTITLE=Various Artist - The Very Best of Country Legends Disc 1
DYEAR=2003
DGENRE=Country
TTITLE0=Johnny Cash - Ring of Fire
TTITLE1=Buck Owens - Love's Gonna Live Here
TTITLE2=Kitty Wells - Heartbreak USA
TTITLE3=Jim Reeves - I Guess I'm Crazy
TTITLE4=Eddy Arnold - I Want To Go With You
TTITLE5=Hank Snow - The Last Ride
TTITLE6=Marty Robbins - Devil Woman
TTITLE7=Claude King - Wolverton Mountains
TTITLE8=David Houston and Tammy Wynette - My Elusive Dream
TTITLE9=Jimmy Dean - Big Bad John
TTITLE10=Loretta Lynn - Don't Come Home A Drinkin' (With Lovin' On Your Mind)
TTITLE11=Willie Nelson - Johnny One Time
TTITLE12=Bill Anderson - Mama Sang A Song
TTITLE13=Ray Price - Make The World Go Away
TTITLE14=Glen Campbell - By The Time I Get To Phoenix
TTITLE15=Charley Pride - The Easy Part's Over
TTITLE16=Dottie West - Paper Mansions
TTITLE17=Porter Wagoner - The Carroll County Accident
TTITLE18=George Hamilton - Abilene
TTITLE19=Jack Greene - There Goes My Everything
EXTD=YEAR: 2003
EXTT0=
EXTT1=
EXTT2=
EXTT3=
EXTT4=
EXTT5=
EXTT6=
EXTT7=
EXTT8=
EXTT9=
EXTT10=
EXTT11=
EXTT12=
EXTT13=
EXTT14=
EXTT15=
EXTT16=
EXTT17=
EXTT18=
EXTT19=
PLAYORDER=
